<?xml version="1.0" encoding="utf-8"?>
<!-- Generator: Adobe Illustrator 24.1.1, SVG Export Plug-In . SVG Version: 6.00 Build 0)  -->
<svg version="1.1" id="vector" xmlns="http://www.w3.org/2000/svg" xmlns:xlink="http://www.w3.org/1999/xlink" x="0px" y="0px"
	 viewBox="0 0 432 432" style="enable-background:new 0 0 432 432;" xml:space="preserve">
<style type="text/css">
	.st0{fill:#0F9D58;}
	.st1{fill:#F4B400;}
	.st2{fill:#DB4437;}
	.st3{fill:#4285F4;}
</style>
<path id="path_4" class="st0" d="M214.3,247.8v6.8c-22.5-12.9-50-17.9-79.3-7.6c-31.9,11.4-56.3,39.7-62.2,73.2
	c-10.9,65.3,44.3,121,109.4,110.7c46.7-7.4,79.7-50.2,79.7-97.6v-37.6 M166.7,384.3c-26.2,0-47.6-21.4-47.6-47.6
	s21.4-47.6,47.6-47.6s47.6,21.4,47.6,47.6S192.9,384.3,166.7,384.3z"/>
<path id="path_5" class="st1" d="M0,33.5L33.5,0l398.4,398.4l-33.5,33.5L0,33.5z"/>
<path id="path_6" class="st2" d="M261.9,160.6V3.2h-47.6V113L261.9,160.6z"/>
<path id="path_7" class="st3" d="M261.9,3.2h95.2v95.2h-95.2V3.2z"/>
</svg>
